<?xml version="1.0" encoding="UTF-8"?>
<svg data-bbox="-12.362 0 90.362 88.843" viewBox="0 0 78 78" height="78" width="78" xmlns="http://www.w3.org/2000/svg" data-type="ugc">
    <g>
        <path fill="#EFECFE" d="M78 39c0 21.54-17.46 39-39 39S0 60.54 0 39 17.46 0 39 0s39 17.46 39 39z"/>
        <path fill="#FF9820" d="m36.198 61.133-7.96 3.608-6.497-14.336-.662-1.462a83.629 83.629 0 0 1-1.027-2.374c-.366-.879-.688-1.662-.968-2.352a22.335 22.335 0 0 1-.496 1.498c-.136.42-.297.82-.485 1.199l-2.056 4.212-6.325-3.155 6.269-12.632 7.066-3.202 13.141 28.996Z"/>
        <mask height="33" width="28" y="32" x="9" maskUnits="userSpaceOnUse" style="mask-type:alpha" id="99ef14d6-8907-447a-b8f5-870ec402714f" fill="none">
            <path fill="#FF9820" d="m36.198 61.133-7.96 3.608-6.497-14.336-.662-1.462a83.629 83.629 0 0 1-1.027-2.374c-.366-.879-.688-1.662-.968-2.352a22.335 22.335 0 0 1-.496 1.498c-.136.42-.297.82-.485 1.199l-2.056 4.212-6.325-3.155 6.269-12.632 7.066-3.202 13.141 28.996Z"/>
        </mask>
        <g mask="url(#99ef14d6-8907-447a-b8f5-870ec402714f)">
            <path fill="#FFAF51" d="m-12.362 65.811.216-2.196 49.254 4.847-.216 2.196-49.254-4.847z"/>
            <path fill="#FFAF51" d="m-9.517 61.84.216-2.197 49.254 4.847-.216 2.196-49.254-4.847z"/>
            <path fill="#FFAF51" d="m-6.671 57.867.216-2.196 49.254 4.847-.216 2.196-49.254-4.847z"/>
            <path fill="#FFAF51" d="m-3.825 53.895.216-2.196 49.254 4.847-.216 2.196-49.254-4.847z"/>
            <path fill="#FFAF51" d="m-.98 49.923.217-2.196 49.254 4.847-.216 2.196-49.254-4.847z"/>
            <path fill="#FFAF51" d="m1.866 45.951.216-2.196 49.254 4.847-.216 2.196-49.254-4.847z"/>
            <path fill="#FFAF51" d="m4.712 41.98.216-2.197 49.254 4.847-.216 2.196-49.254-4.847z"/>
            <path fill="#FFAF51" d="m7.558 38.008.216-2.196 49.254 4.847-.216 2.196-49.254-4.847z"/>
            <path fill="#FFAF51" d="m10.403 34.035.216-2.196 49.254 4.847-.216 2.196-49.254-4.847z"/>
            <path fill="#FFAF51" d="m11.55 22.978 2.203.149-3.338 49.379-2.202-.149 3.338-49.38z"/>
            <path fill="#FFAF51" d="m15.608 25.7 2.202.149-3.338 49.379-2.202-.149 3.338-49.38z"/>
            <path fill="#FFAF51" d="m19.666 28.424 2.202.149-3.338 49.379-2.202-.149 3.338-49.38z"/>
            <path fill="#FFAF51" d="m23.722 31.147 2.202.149-3.338 49.379-2.202-.149 3.338-49.38z"/>
            <path fill="#FFAF51" d="m27.78 33.869 2.202.149-3.338 49.379-2.202-.149 3.338-49.38z"/>
            <path fill="#FFAF51" d="m31.837 36.592 2.202.149L30.7 86.12l-2.202-.149 3.338-49.38z"/>
            <path fill="#FFAF51" d="m35.894 39.315 2.202.149-3.338 49.379-2.202-.149 3.338-49.38z"/>
            <path fill-opacity=".3" fill="#CF4B00" d="M30.743 56.874c1.756-4.013-1.657-11.939-3.754-16.172l10.057 19.036-.5 1.657-9.49 4.3-2.084-4.596c1.078-.25 4.015-.211 5.771-4.225Z"/>
        </g>
        <path fill="#E17A00" d="m37.419 61.593-9.64 4.369-7.54-16.638a84.408 84.408 0 0 1-1.08-2.5 9.44 9.44 0 0 1-.228.497l-.001.002-2.462 5.044-7.982-3.981 6.824-13.751 8.206-3.719L37.42 61.593ZM18.103 46.914a8.8 8.8 0 0 0 .485-1.199l.053-.143c.146-.399.293-.85.443-1.354a258.79 258.79 0 0 0 .968 2.351c.365.879.708 1.67 1.027 2.374l7.16 15.798 7.959-3.607-13.141-28.997-7.066 3.203L9.72 47.97l6.326 3.155 2.056-4.212Z" clip-rule="evenodd" fill-rule="evenodd"/>
        <path stroke="#FEECF5" fill="#643EFF" d="M50.623 47.68h.5V36.948H40.14c2.177-1.988 4.004-3.767 5.474-5.335 1.57-1.673 2.774-3.374 3.57-5.109.85-1.812 1.257-3.83 1.257-6.025 0-2.096-.565-4.01-1.712-5.696-1.105-1.673-2.652-2.958-4.58-3.87C42.185 9.95 39.911 9.5 37.375 9.5c-2.404 0-4.52.286-6.31.904-1.704.558-3.23 1.3-4.563 2.236l-.005.003-.005.004-.005.004c-1.21.874-2.355 1.8-3.433 2.777l-.724.655-.36.327.316.369 6.44 7.533.327.382.38-.328.764-.66c1.382-1.194 2.56-2.047 3.54-2.595.91-.508 1.76-.731 2.57-.731.644 0 1.109.157 1.468.408l.01.006h-.001l.01.007.009.006a.627.627 0 0 1 .232.273c.063.139.118.357.118.71 0 .6-.137 1.18-.424 1.755-.298.596-.888 1.416-1.855 2.477l.37.337-.37-.337-.006.006-.005.006-.005.006c-.953 1.08-2.295 2.534-4.034 4.37l-8.732 8.832-.144.146v8.293h27.674ZM36 38.453v.5h13.116v6.724H24.954v-5.464l8.308-8.404.008-.008c1.748-1.846 3.112-3.323 4.09-4.43 1.014-1.114 1.745-2.091 2.163-2.928a5.87 5.87 0 0 0 .636-2.653c0-1.15-.385-2.076-1.238-2.647-.743-.518-1.622-.767-2.614-.767-1.198 0-2.383.335-3.547.986-1.04.581-2.204 1.418-3.49 2.501l-4.507-5.272a38.051 38.051 0 0 1 2.896-2.312c1.152-.809 2.498-1.467 4.043-1.972l.008-.003c1.519-.527 3.403-.798 5.666-.798 2.305 0 4.267.41 5.9 1.212l.007.003c1.643.775 2.896 1.835 3.78 3.175l.004.007c.912 1.337 1.37 2.857 1.37 4.576 0 1.945-.36 3.668-1.07 5.18l-.002.004c-.684 1.494-1.75 3.02-3.213 4.578-1.446 1.542-3.265 3.314-5.46 5.316h-.002l-2.524 2.282-.165.149v.464Z"/>
        <path fill="#8465FF" d="M49.617 46.176H24.454v-6.17l8.453-8.55c1.748-1.845 3.109-3.319 4.08-4.42 1.004-1.101 1.7-2.04 2.089-2.817a5.364 5.364 0 0 0 .583-2.43c0-1.036-.34-1.78-1.02-2.234-.648-.453-1.425-.68-2.332-.68-1.101 0-2.202.308-3.303.923s-2.364 1.538-3.79 2.769l-5.149-6.024a38.363 38.363 0 0 1 3.304-2.671c1.198-.842 2.59-1.523 4.177-2.04 1.587-.551 3.53-.827 5.83-.827 2.364 0 4.404.421 6.12 1.263 1.717.81 3.045 1.927 3.984 3.352.972 1.425 1.457 3.045 1.457 4.858 0 2.008-.372 3.805-1.117 5.392-.712 1.555-1.813 3.125-3.303 4.712-1.458 1.555-3.287 3.336-5.49 5.344l-2.526 2.283v.243h13.117v7.724Z"/>
        <mask height="37" width="26" y="10" x="24" maskUnits="userSpaceOnUse" style="mask-type:alpha" id="6f7e9879-96a4-4367-8cd9-17b54ab889ec" fill="none">
            <path fill="#8465FF" d="M49.64 46.066H24.477v-6.169l8.452-8.55c1.749-1.846 3.11-3.32 4.08-4.42 1.005-1.101 1.7-2.04 2.09-2.818a5.365 5.365 0 0 0 .582-2.429c0-1.036-.34-1.78-1.02-2.234-.647-.454-1.425-.68-2.331-.68-1.102 0-2.203.307-3.304.923-1.1.615-2.364 1.538-3.789 2.769l-5.15-6.024a38.332 38.332 0 0 1 3.304-2.672c1.199-.842 2.591-1.522 4.178-2.04 1.587-.55 3.53-.826 5.83-.826 2.363 0 4.404.421 6.12 1.263 1.717.81 3.044 1.927 3.983 3.352.972 1.425 1.458 3.044 1.458 4.858 0 2.008-.373 3.805-1.117 5.392-.713 1.554-1.814 3.125-3.304 4.712-1.457 1.555-3.287 3.336-5.49 5.343L36.525 38.1v.243H49.64v7.723Z"/>
        </mask>
        <g mask="url(#6f7e9879-96a4-4367-8cd9-17b54ab889ec)">
            <path stroke-width=".946" stroke="#9E86FF" d="M40.123 28.424a3.31 3.31 0 1 1-6.62 0 3.31 3.31 0 0 1 6.62 0z" fill="none"/>
            <path stroke-width=".946" stroke="#9E86FF" d="M42.802 28.424a5.989 5.989 0 1 1-11.978 0 5.989 5.989 0 0 1 11.978 0z" fill="none"/>
            <path stroke-width=".946" stroke="#9E86FF" d="M45.167 28.424a8.354 8.354 0 1 1-16.708 0 8.354 8.354 0 0 1 16.708 0z" fill="none"/>
            <path stroke-width=".946" stroke="#9E86FF" d="M47.531 28.424c0 5.92-4.799 10.718-10.718 10.718-5.92 0-10.718-4.799-10.718-10.718 0-5.92 4.799-10.718 10.718-10.718 5.92 0 10.718 4.799 10.718 10.718z" fill="none"/>
            <path stroke-width=".946" stroke="#9E86FF" d="M49.895 28.424c0 7.225-5.857 13.082-13.082 13.082-7.225 0-13.082-5.857-13.082-13.082 0-7.225 5.857-13.082 13.082-13.082 7.225 0 13.082 5.857 13.082 13.082z" fill="none"/>
            <path stroke-width=".946" stroke="#9E86FF" d="M52.259 28.424c0 8.53-6.915 15.446-15.446 15.446-8.53 0-15.446-6.915-15.446-15.446 0-8.53 6.915-15.446 15.446-15.446 8.53 0 15.446 6.915 15.446 15.446z" fill="none"/>
            <path stroke-width=".946" stroke="#9E86FF" d="M54.624 28.424c0 9.837-7.974 17.811-17.811 17.811s-17.811-7.974-17.811-17.811 7.974-17.811 17.811-17.811 17.811 7.974 17.811 17.811z" fill="none"/>
            <path stroke-width=".946" stroke="#9E86FF" d="M56.83 28.424c0 11.055-8.962 20.017-20.017 20.017s-20.017-8.962-20.017-20.017S25.758 8.407 36.813 8.407 56.83 17.369 56.83 28.424z" fill="none"/>
            <path stroke-width=".946" stroke="#9E86FF" d="M59.194 28.424c0 12.36-10.02 22.381-22.381 22.381-12.36 0-22.381-10.02-22.381-22.381 0-12.36 10.02-22.381 22.381-22.381 12.36 0 22.381 10.02 22.381 22.381z" fill="none"/>
            <path stroke-width=".946" stroke="#9E86FF" d="M61.559 28.424c0 13.667-11.08 24.746-24.746 24.746-13.667 0-24.746-11.08-24.746-24.746 0-13.667 11.08-24.746 24.746-24.746 13.667 0 24.746 11.08 24.746 24.746z" fill="none"/>
            <path stroke-width=".946" stroke="#9E86FF" d="M61.559 28.424c0 13.667-11.08 24.746-24.746 24.746-13.667 0-24.746-11.08-24.746-24.746 0-13.667 11.08-24.746 24.746-24.746 13.667 0 24.746 11.08 24.746 24.746z" fill="none"/>
            <path fill="#6E4CF4" d="M36.877 38.072c-6.961 2.037-11.19 6.36-11.723 8.728h25.932v-9.083c-1.954-1.184-6.927-1.776-14.21.355Z" opacity=".5"/>
            <path fill="#6E4CF4" d="M47.179 21.376c-.124-3.846-2.25-8.112-3.198-9.414l4.086.888 3.907 3.73-2.131 10.48-4.973 9.058-7.993 1.954c3.552-4.204 10.48-11.19 10.302-16.696Z" opacity=".5"/>
        </g>
        <mask fill="#000000" height="47.284" width="40.841" y="20.256" x="34.81" maskUnits="userSpaceOnUse" id="40e78ed6-54d9-4454-9e18-356942b84d0e">
            <path fill="#ffffff" d="M75.651 20.256V67.54H34.81V20.256h40.841z"/>
            <path d="m67.998 42.453-.005.005a10.222 10.222 0 0 1-3.926 2.095h-.003l-.003.002c-.409.112-.823.206-1.242.28 1.283.914 2.287 1.97 2.98 3.181 1.207 2.015 1.328 4.343.511 6.87a10.236 10.236 0 0 1-3.368 4.897c-1.616 1.343-3.682 2.11-6.13 2.361-2.461.264-5.335-.165-8.59-1.216-2.15-.694-3.97-1.454-5.445-2.286l-.009-.005-.008-.005a32.431 32.431 0 0 1-4.05-2.823l-.527-.43 3.078-9.534 1.153 1.15a20.287 20.287 0 0 0 3.68 2.925c1.337.789 2.573 1.36 3.709 1.727 1.046.338 1.91.535 2.602.61.702.075 1.159.016 1.436-.089l.008-.003.01-.004c.688-.246 1.133-.7 1.378-1.458.178-.552.168-1.017.02-1.433l-.01-.03-.01-.032c-.094-.335-.42-.799-1.249-1.34l-.003-.003-.004-.002c-.773-.514-2.061-1.083-3.93-1.686l-2.967-.958 2.76-8.546 3.012.973c2.49.804 4.087.954 4.967.712l.007-.002.007-.001c.957-.25 1.414-.709 1.615-1.33.195-.604.09-.973-.185-1.283l-.01-.013-.011-.012c-.376-.454-1.005-.87-1.99-1.188a8.867 8.867 0 0 0-2.631-.443 13.99 13.99 0 0 0-2.368.177l-.018.004-.02.002c-.726.096-1.252.192-1.599.282l-.976.254-2.23-9.005.916-.27c1.73-.508 3.607-.8 5.627-.882h.006c2.139-.075 4.673.383 7.576 1.32 3.474 1.123 6.108 2.739 7.766 4.923 1.718 2.234 2.161 4.74 1.3 7.408-.549 1.697-1.407 3.098-2.602 4.15l-.005.005ZM54.631 33.09a9.86 9.86 0 0 1 2.93.491c1.1.355 1.918.856 2.453 1.5.544.615.673 1.366.386 2.252-.325 1.009-1.096 1.671-2.312 1.988-1.186.326-3.032.084-5.538-.726l-2.064-.666-2.147 6.648 2.018.652c1.895.612 3.287 1.213 4.176 1.805.92.6 1.475 1.235 1.664 1.904.23.648.226 1.339-.011 2.072-.336 1.04-1 1.737-1.992 2.091-.962.365-2.528.197-4.698-.504-1.223-.395-2.529-1.003-3.918-1.823a20.958 20.958 0 0 1-3.067-2.31 22.62 22.62 0 0 1-.801-.762l-2.37 7.336a31.446 31.446 0 0 0 3.927 2.737c1.399.79 3.153 1.524 5.262 2.206 3.18 1.026 5.905 1.417 8.178 1.173 2.304-.235 4.172-.949 5.603-2.14a9.241 9.241 0 0 0 3.052-4.433c.75-2.323.61-4.343-.423-6.06-.764-1.34-1.986-2.506-3.664-3.5a17.142 17.142 0 0 0-1.58-.822l-.038-.017.044-.138.018.001c.608.024 1.204.01 1.788-.04a12.806 12.806 0 0 0 2.289-.41 9.226 9.226 0 0 0 3.548-1.893c1.038-.913 1.808-2.15 2.312-3.709.76-2.353.379-4.519-1.143-6.495-1.491-1.967-3.918-3.494-7.28-4.58-2.843-.918-5.255-1.342-7.235-1.273-1.95.08-3.745.36-5.386.843l1.758 7.1.141-.036c.393-.093.92-.183 1.577-.27.751-.13 1.599-.193 2.543-.192Z" clip-rule="evenodd" fill-rule="evenodd"/>
        </mask>
        <path fill="#E734A9" d="m67.998 42.453-.005.005a10.222 10.222 0 0 1-3.926 2.095h-.003l-.003.002c-.409.112-.823.206-1.242.28 1.283.914 2.287 1.97 2.98 3.181 1.207 2.015 1.328 4.343.511 6.87a10.236 10.236 0 0 1-3.368 4.897c-1.616 1.343-3.682 2.11-6.13 2.361-2.461.264-5.335-.165-8.59-1.216-2.15-.694-3.97-1.454-5.445-2.286l-.009-.005-.008-.005a32.431 32.431 0 0 1-4.05-2.823l-.527-.43 3.078-9.534 1.153 1.15a20.287 20.287 0 0 0 3.68 2.925c1.337.789 2.573 1.36 3.709 1.727 1.046.338 1.91.535 2.602.61.702.075 1.159.016 1.436-.089l.008-.003.01-.004c.688-.246 1.133-.7 1.378-1.458.178-.552.168-1.017.02-1.433l-.01-.03-.01-.032c-.094-.335-.42-.799-1.249-1.34l-.003-.003-.004-.002c-.773-.514-2.061-1.083-3.93-1.686l-2.967-.958 2.76-8.546 3.012.973c2.49.804 4.087.954 4.967.712l.007-.002.007-.001c.957-.25 1.414-.709 1.615-1.33.195-.604.09-.973-.185-1.283l-.01-.013-.011-.012c-.376-.454-1.005-.87-1.99-1.188a8.867 8.867 0 0 0-2.631-.443 13.99 13.99 0 0 0-2.368.177l-.018.004-.02.002c-.726.096-1.252.192-1.599.282l-.976.254-2.23-9.005.916-.27c1.73-.508 3.607-.8 5.627-.882h.006c2.139-.075 4.673.383 7.576 1.32 3.474 1.123 6.108 2.739 7.766 4.923 1.718 2.234 2.161 4.74 1.3 7.408-.549 1.697-1.407 3.098-2.602 4.15l-.005.005ZM54.631 33.09a9.86 9.86 0 0 1 2.93.491c1.1.355 1.918.856 2.453 1.5.544.615.673 1.366.386 2.252-.325 1.009-1.096 1.671-2.312 1.988-1.186.326-3.032.084-5.538-.726l-2.064-.666-2.147 6.648 2.018.652c1.895.612 3.287 1.213 4.176 1.805.92.6 1.475 1.235 1.664 1.904.23.648.226 1.339-.011 2.072-.336 1.04-1 1.737-1.992 2.091-.962.365-2.528.197-4.698-.504-1.223-.395-2.529-1.003-3.918-1.823a20.958 20.958 0 0 1-3.067-2.31 22.62 22.62 0 0 1-.801-.762l-2.37 7.336a31.446 31.446 0 0 0 3.927 2.737c1.399.79 3.153 1.524 5.262 2.206 3.18 1.026 5.905 1.417 8.178 1.173 2.304-.235 4.172-.949 5.603-2.14a9.241 9.241 0 0 0 3.052-4.433c.75-2.323.61-4.343-.423-6.06-.764-1.34-1.986-2.506-3.664-3.5a17.142 17.142 0 0 0-1.58-.822l-.038-.017.044-.138.018.001c.608.024 1.204.01 1.788-.04a12.806 12.806 0 0 0 2.289-.41 9.226 9.226 0 0 0 3.548-1.893c1.038-.913 1.808-2.15 2.312-3.709.76-2.353.379-4.519-1.143-6.495-1.491-1.967-3.918-3.494-7.28-4.58-2.843-.918-5.255-1.342-7.235-1.273-1.95.08-3.745.36-5.386.843l1.758 7.1.141-.036c.393-.093.92-.183 1.577-.27.751-.13 1.599-.193 2.543-.192Z" clip-rule="evenodd" fill-rule="evenodd"/>
        <path mask="url(#40e78ed6-54d9-4454-9e18-356942b84d0e)" fill="#FEECF5" d="m67.993 42.458-.651-.759.651.759Zm.005-.005.652.76.009-.009-.66-.75Zm-3.93 2.1-.273-.962.272.962Zm-.004 0 .266.965.007-.002-.273-.962Zm-.003.002-.266-.965.266.965Zm-1.242.28-.174-.985-2.349.416 1.943 1.383.58-.814Zm2.98 3.181-.867.497.004.008.006.009.858-.514Zm-2.857 11.767-.629-.777-.01.008.64.77Zm-6.13 2.361-.102-.995h-.006l.107.995Zm-14.035-3.502.491-.87v-.001l-.491.871Zm-.009-.005-.508.861.009.006.008.004.491-.87Zm-.008-.005-.508.861.508-.86Zm-4.05-2.823-.634.774.633-.774Zm-.527-.43-.952-.308-.21.65.529.432.633-.774Zm3.078-9.534.707-.707-1.156-1.154-.502 1.554.951.307Zm1.153 1.15.706-.707-.706.708Zm3.68 2.925-.526.85.009.006.008.005.508-.861Zm6.31 2.336.107-.994-.106.994Zm1.437-.088-.355-.935.355.935Zm.008-.003-.336-.942-.01.003-.008.004.355.935Zm.01-.004-.337-.941.336.941Zm1.398-2.891.943-.334-.943.334Zm-.01-.03-.963.271.009.032.01.03.943-.334Zm-.01-.032.963-.272-.963.272Zm-1.249-1.34.547-.838-.547.837Zm-.003-.003-.554.833.008.005.546-.838Zm-.004-.002.554-.833-.553.833Zm-6.897-2.644-.952-.308-.307.952.952.307.307-.951Zm2.76-8.546.307-.952-.951-.307-.308.952.952.307Zm7.98 1.685-.266-.964.265.964Zm.006-.002-.252-.967-.013.003.265.964Zm.007-.001-.252-.968.252.968Zm1.43-2.613.749-.663-.749.663Zm-.01-.013-.77.638.01.013.01.012.75-.663Zm-.011-.012-.77.638.77-.638Zm-4.621-1.63.012-1h-.011l-.001 1Zm-2.368.176-.17-.985.17.985Zm-.018.004.131.99.019-.002.019-.003-.17-.986Zm-.02.002-.13-.991h-.001l.132.991Zm-1.599.282.252.968-.252-.968Zm-.976.254-.97.24.243.982.979-.254-.252-.968Zm-2.23-9.005-.282-.96-.918.27.23.93.97-.24Zm.916-.27-.282-.959.282.96Zm5.627-.882.04 1h.001l-.04-1Zm.003 0-.035-1h-.006l.041 1Zm.003 0 .035 1-.035-1Zm15.342 6.243-.797.605.005.005.792-.61ZM68.003 42.45l.66.75-.66-.75ZM54.63 33.09l.012-1h-.01l-.002 1Zm5.383 1.99-.77.639.01.012.01.013.75-.663Zm-1.926 4.24-.252-.968-.014.003.266.965Zm-7.602-1.392.308-.952-.952-.307-.307.952.951.307Zm-2.147 6.648-.951-.307-.308.952.952.307.307-.952Zm6.194 2.457-.553.832.006.005.547-.837Zm1.664 1.904-.963.272.01.031.01.03.943-.333ZM54.194 53.1l-.337-.941-.009.003-.008.003.354.935Zm-8.616-2.327-.525.852.009.005.008.005.508-.862Zm-3.067-2.31.671-.741-.67.741Zm-.801-.762.706-.708-1.156-1.154-.502 1.555.952.307Zm-2.37 7.336-.951-.307-.21.65.528.432.633-.775Zm3.927 2.737-.509.861.009.005.008.005.492-.871Zm13.44 3.379-.101-.995H56.6l.107.995Zm5.603-2.14-.629-.778-.005.005-.006.004.64.769Zm2.63-10.493-.87.495.006.01.006.01.857-.515Zm-3.665-3.5.509-.86-.51.86Zm-1.58-.822-.417.91.417-.91Zm-.038-.017-.952-.307-.273.847.81.37.415-.91Zm.044-.138.04-.999-.758-.03-.233.722.951.307Zm.018.001-.039 1 .04-1Zm1.788-.04.087.995-.087-.996Zm2.289-.41.266.964.006-.002-.272-.962Zm3.548-1.893.652.759.009-.008-.661-.75Zm1.169-10.204-.797.604.005.006.792-.61Zm-14.515-5.853-.035-1-.006.001.04 1Zm-5.386.843-.282-.96-.92.27.23.93.972-.24Zm1.9 7.064.229.974-.23-.974Zm1.576-.27.132.991.019-.002.019-.004-.17-.985Zm16.557 9.935.005-.004-1.304-1.517-.004.004 1.303 1.517Zm-4.306 2.3a11.221 11.221 0 0 0 4.306-2.3l-1.303-1.517a9.221 9.221 0 0 1-3.547 1.892l.544 1.924Zm-.002 0 .003-.001-.546-1.924h-.003l.546 1.925Zm-.01.003.002-.001-.53-1.928h-.004l.531 1.929Zm-1.334.3c.45-.08.895-.18 1.334-.3l-.532-1.928c-.378.104-.761.19-1.15.26l.348 1.968Zm3.674 1.7c-.777-1.358-1.889-2.516-3.268-3.499l-1.16 1.63c1.187.845 2.084 1.799 2.693 2.863l1.735-.994Zm.595 7.675c.884-2.736.783-5.375-.605-7.692l-1.715 1.028c1.026 1.714 1.166 3.73.417 6.05l1.903.614Zm-3.69 5.367a11.237 11.237 0 0 0 3.69-5.367l-1.903-.615a9.238 9.238 0 0 1-3.046 4.427l1.258 1.555Zm-6.66 2.578c2.599-.266 4.867-1.089 6.67-2.587l-1.279-1.538c-1.43 1.189-3.294 1.9-5.593 2.135l.203 1.99Zm-8.997-1.26c3.332 1.077 6.354 1.544 9.003 1.26l-.214-1.99c-2.272.245-4.996-.146-8.174-1.172l-.615 1.903Zm-5.63-2.366c1.55.875 3.438 1.659 5.63 2.367l.615-1.903c-2.109-.681-3.863-1.417-5.262-2.206l-.983 1.742Zm-.008-.005.009.005.982-1.742-.008-.005-.983 1.742Zm-.025-.015.008.005 1.017-1.722-.009-.005-1.016 1.722Zm-4.176-2.91c1.309 1.07 2.7 2.04 4.176 2.91l1.016-1.722a31.429 31.429 0 0 1-3.926-2.736l-1.266 1.548Zm-.526-.43.526.43 1.266-1.548-.526-.43-1.266 1.548Zm5.57-9.865-1.152-1.15-1.413 1.415 1.152 1.15 1.413-1.415Zm3.498 2.78a19.287 19.287 0 0 1-3.498-2.78l-1.413 1.415a21.286 21.286 0 0 0 3.861 3.068l1.05-1.702Zm3.492 1.628c-1.05-.34-2.219-.877-3.509-1.638l-1.016 1.723c1.386.818 2.69 1.424 3.91 1.818l.615-1.903Zm2.401.566c-.6-.065-1.394-.241-2.401-.566l-.615 1.903c1.085.35 2.02.568 2.803.652l.213-1.989Zm.975-.029c-.072.028-.353.096-.974.03l-.214 1.988c.783.084 1.416.035 1.897-.148l-.709-1.87Zm.01-.003-.01.003.709 1.87.009-.003-.709-1.87Zm.026-.01-.01.003.674 1.883.01-.003-.674-1.883Zm.764-.824c-.154.474-.38.687-.764.824l.673 1.883c.993-.355 1.658-1.052 1.994-2.093l-1.904-.614Zm.029-.792c.065.185.09.422-.03.792l1.904.614c.237-.734.24-1.426.01-2.074l-1.884.668Zm-.011-.03.01.03 1.886-.668-.011-.03-1.885.667Zm-.029-.094.01.031 1.924-.544-.01-.03-1.924.543Zm-.834-.776c.358.234.571.428.694.569.122.14.142.212.14.207l1.925-.544c-.19-.669-.744-1.304-1.665-1.906l-1.094 1.674Zm-.002-.001.003.002 1.092-1.676-.003-.002-1.092 1.676Zm-.011-.008.003.003 1.108-1.666-.004-.002-1.107 1.665Zm-3.685-1.567c1.844.596 3.027 1.13 3.685 1.568l1.107-1.666c-.89-.591-2.282-1.193-4.177-1.805l-.615 1.903Zm7.815-9.734c-.258.071-.728.108-1.484.009-.743-.098-1.704-.32-2.91-.709l-.615 1.903c1.283.415 2.366.67 3.264.789.885.116 1.654.107 2.275-.063l-.53-1.929Zm.007-.002-.007.002.53 1.929.007-.002-.53-1.929Zm.02-.005-.007.002.504 1.935.007-.001-.504-1.936Zm.915-.668a.737.737 0 0 1-.225.354c-.114.097-.316.217-.69.314l.503 1.936c.584-.152 1.089-.387 1.493-.736a2.73 2.73 0 0 0 .822-1.254L58.5 36.72Zm.019-.315a.24.24 0 0 1 .033.044c0 .002 0 0 0 0l-.001-.002s.003.019-.001.061a1.08 1.08 0 0 1-.05.212l1.903.614c.131-.405.19-.819.118-1.232a2.06 2.06 0 0 0-.505-1.022l-1.497 1.325Zm-.011-.012.01.013 1.498-1.326-.011-.013-1.497 1.326Zm-.032-.038.01.013 1.54-1.275-.01-.013-1.54 1.276Zm-1.528-.874c.871.282 1.311.613 1.528.875l1.54-1.276c-.535-.646-1.352-1.146-2.453-1.502l-.615 1.903Zm-2.335-.394c.762.01 1.539.137 2.335.394l.614-1.903a9.864 9.864 0 0 0-2.925-.49l-.024 2Zm-2.187.163a13.014 13.014 0 0 1 2.198-.163l.002-2a14.991 14.991 0 0 0-2.538.192l.338 1.97Zm-.018.003.019-.003-.34-1.971-.018.003.339 1.971Zm-.057.008.02-.002-.264-1.983-.019.003.263 1.982Zm-1.48.259c.29-.075.768-.164 1.48-.259l-.263-1.982c-.74.098-1.314.2-1.72.305l.504 1.936Zm-.975.254.976-.254-.503-1.936-.976.254.503 1.936ZM48.048 24.57l-.916.27.565 1.918.915-.27-.564-1.918Zm5.869-.922c-2.09.085-4.05.387-5.869.922l.564 1.919c1.641-.483 3.436-.763 5.386-.843l-.081-1.998Zm.002 0h-.002l.081 1.998h.003l-.082-1.998Zm.009 0h-.003l.07 1.998h.003l-.07-1.998Zm7.918 1.368c-2.963-.957-5.62-1.449-7.918-1.369l.07 2c1.98-.07 4.39.354 7.233 1.272l.615-1.903Zm8.256 5.27c-1.825-2.404-4.667-4.11-8.256-5.27l-.615 1.903c3.361 1.086 5.786 2.61 7.277 4.576l1.594-1.21Zm1.454 8.319c.964-2.985.459-5.833-1.458-8.325l-1.585 1.22c1.52 1.975 1.9 4.139 1.14 6.49l1.903.615ZM68.664 43.2c1.353-1.192 2.299-2.757 2.892-4.594l-1.903-.615c-.504 1.559-1.274 2.795-2.311 3.708l1.322 1.501Zm-.005.004.004-.004-1.321-1.501-.004.004 1.32 1.501Zm-10.79-10.576a10.86 10.86 0 0 0-3.226-.539l-.023 2c.87.01 1.747.156 2.634.443l.615-1.904Zm2.915 1.815c-.694-.837-1.7-1.422-2.915-1.815l-.615 1.904c.986.318 1.614.734 1.99 1.187l1.54-1.276Zm.568 3.197c.377-1.17.224-2.303-.59-3.222l-1.497 1.326c.274.31.379.677.184 1.281l1.903.615Zm-3.013 2.647c1.476-.383 2.561-1.249 3.013-2.647l-1.903-.615c-.2.619-.657 1.078-1.613 1.327l.503 1.935Zm-6.097-.741c2.523.815 4.619 1.148 6.11.738l-.53-1.929c-.878.242-2.475.092-4.965-.712l-.615 1.903Zm2.845 6.654c-1.005-.668-2.502-1.303-4.423-1.924l-.615 1.903c1.87.604 3.157 1.172 3.93 1.686l1.108-1.665Zm2.072 2.465c-.284-1.003-1.068-1.81-2.079-2.47l-1.094 1.675c.83.541 1.154 1.005 1.248 1.339l1.925-.544Zm-.022 2.652c.296-.916.314-1.834.002-2.714l-1.885.668c.148.416.158.88-.02 1.431l1.903.615Zm-2.606 2.725c1.296-.464 2.18-1.403 2.606-2.725l-1.903-.615c-.244.756-.689 1.21-1.377 1.457l.674 1.883Zm-5.342-.495c1.124.363 2.129.6 3.002.695.864.093 1.672.053 2.357-.207l-.709-1.87c-.276.105-.732.164-1.434.088-.692-.074-1.555-.271-2.602-.609l-.614 1.903Zm-4.12-1.912c1.438.848 2.812 1.49 4.12 1.912l.614-1.903c-1.137-.367-2.375-.94-3.716-1.732l-1.017 1.723Zm-3.229-2.43a21.958 21.958 0 0 0 3.213 2.42l1.05-1.703a19.953 19.953 0 0 1-2.92-2.2l-1.343 1.483Zm-.837-.796c.274.274.553.539.837.796l1.342-1.483c-.26-.235-.514-.477-.766-.729l-1.413 1.416Zm2.772 8.504a30.44 30.44 0 0 1-3.802-2.65l-1.266 1.549a32.446 32.446 0 0 0 4.051 2.823l1.017-1.722Zm5.061 2.115c-2.067-.668-3.755-1.378-5.078-2.125l-.983 1.742c1.475.832 3.296 1.592 5.447 2.286l.614-1.903Zm7.764 1.13c-2.084.225-4.662-.128-7.764-1.13l-.614 1.903c3.256 1.052 6.13 1.48 8.592 1.216l-.214-1.989Zm5.07-1.914c-1.245 1.037-2.91 1.694-5.064 1.914l.203 1.99c2.453-.25 4.523-1.02 6.14-2.367l-1.279-1.537Zm2.74-3.971a8.24 8.24 0 0 1-2.729 3.962l1.258 1.555a10.241 10.241 0 0 0 3.374-4.902l-1.903-.615Zm-.328-5.238c.851 1.416 1.01 3.124.328 5.238l1.903.615c.818-2.533.696-4.865-.517-6.883l-1.714 1.03Zm-3.316-3.154c1.568.928 2.646 1.98 3.305 3.134l1.737-.99c-.87-1.526-2.235-2.807-4.024-3.865l-1.018 1.721Zm-1.488-.774c.537.246 1.032.505 1.488.774l1.018-1.721a18.142 18.142 0 0 0-1.672-.87l-.834 1.817Zm-.036-.016.036.016.834-1.818-.04-.018-.83 1.82Zm-.492-1.355-.045.138 1.904.614.044-.137-1.903-.615Zm1.008-.691h-.017l-.08 1.997.02.001.077-1.998Zm1.661-.038c-.54.047-1.093.06-1.66.038l-.079 1.998c.649.026 1.287.011 1.914-.044l-.175-1.992Zm2.111-.377c-.68.187-1.384.313-2.11.377l.174 1.992c.844-.074 1.667-.22 2.468-.441l-.532-1.928Zm3.162-1.687a8.225 8.225 0 0 1-3.168 1.688l.544 1.925a10.226 10.226 0 0 0 3.928-2.096l-1.304-1.517Zm2.012-3.258c-.458 1.42-1.141 2.491-2.021 3.266l1.322 1.5c1.196-1.052 2.054-2.453 2.602-4.151l-1.903-.615Zm-.983-5.578c1.323 1.718 1.641 3.54.983 5.578l1.903.615c.863-2.67.42-5.178-1.302-7.413l-1.584 1.22Zm-6.796-4.238c3.248 1.049 5.466 2.485 6.791 4.232l1.594-1.209c-1.658-2.186-4.294-3.803-7.77-4.926l-.615 1.903Zm-6.892-1.226c1.82-.063 4.11.327 6.892 1.226l.615-1.903c-2.903-.938-5.438-1.396-7.577-1.321l.07 1.998Zm-5.14.803c1.553-.456 3.266-.726 5.145-.803l-.08-1.998c-2.021.082-3.899.374-5.628.883l.564 1.918Zm1.195 5.18c-.678 1.242.563 1.92.563 1.92s-1.241-.678-.563-1.92l.563 1.92c.678-1.241-.563-1.92-.563-1.92s1.241.679.563 1.92l-.563-1.92Zm.193-.048-.163.04.503 1.936.12-.03-.46-1.946Zm1.676-.289a17.71 17.71 0 0 0-1.676.29l.46 1.946a15.81 15.81 0 0 1 1.48-.253l-.264-1.983Zm2.676-.2a15.978 15.978 0 0 0-2.714.206l.339 1.971a14.012 14.012 0 0 1 2.372-.177l.003-2ZM40.31 45.538l-3.08 9.532 1.903.615 3.079-9.533-1.903-.615Zm6.467.632 2.966.958.614-1.903-2.966-.958-.614 1.903Zm2.115-9.804-2.76 8.545 1.904.615 2.76-8.546-1.904-.614Zm4.271.328-3.012-.973-.614 1.904 3.012.972.614-1.903Zm-6.72-10.654 2.23 9.005 1.942-.48-2.23-9.005-1.941.48Zm3.736 12.84 2.063.666.615-1.903-2.063-.667-.615 1.904Zm-.888 6.004 2.147-6.649-1.903-.614-2.147 6.648 1.903.615Zm1.373-.608-2.017-.651-.615 1.903 2.017.651.615-1.903ZM40.292 55.345l2.37-7.337-1.904-.614-2.37 7.336 1.904.615ZM51.34 33.346l-1.758-7.1-1.941.481 1.758 7.1 1.941-.481Z"/>
        <path fill="#FF6DCE" d="M69.656 37.992c-.504 1.56-1.274 2.796-2.312 3.71a9.225 9.225 0 0 1-3.548 1.892 13.306 13.306 0 0 1-4.095.45l-.044.137c2.53 1.155 4.29 2.6 5.282 4.339 1.032 1.717 1.173 3.737.423 6.06a9.241 9.241 0 0 1-3.052 4.433c-1.431 1.191-3.299 1.905-5.602 2.14-2.274.244-5-.147-8.179-1.173-2.109-.681-3.863-1.417-5.262-2.206a31.447 31.447 0 0 1-3.927-2.737l2.37-7.336a21.286 21.286 0 0 0 3.868 3.072c1.39.82 2.695 1.428 3.918 1.823 2.17.7 3.736.869 4.698.504.992-.354 1.656-1.051 1.992-2.09.237-.734.24-1.425.01-2.073-.188-.669-.743-1.303-1.663-1.904-.889-.591-2.281-1.193-4.176-1.805l-2.018-.652 2.147-6.648 2.064.666c2.506.81 4.352 1.052 5.538.726 1.216-.316 1.987-.979 2.313-1.988.286-.886.157-1.637-.387-2.251-.535-.645-1.352-1.146-2.452-1.501a9.86 9.86 0 0 0-2.93-.49 14.993 14.993 0 0 0-2.543.19c-.741.1-1.314.201-1.72.306l-1.757-7.099c1.64-.483 3.436-.764 5.386-.843 1.98-.07 4.392.355 7.234 1.273 3.363 1.086 5.79 2.613 7.281 4.58 1.522 1.976 1.903 4.142 1.143 6.495Z"/>
        <mask height="37" width="31" y="25" x="39" maskUnits="userSpaceOnUse" style="mask-type:alpha" id="ad06296f-8533-4d88-b04a-8c9a25fc8560" fill="none">
            <path fill="#FF6DCE" d="M69.614 38.121c-.503 1.56-1.274 2.796-2.312 3.71a9.227 9.227 0 0 1-3.547 1.892 13.306 13.306 0 0 1-4.095.45l-.044.137c2.53 1.155 4.29 2.601 5.282 4.339 1.032 1.717 1.172 3.737.422 6.06a9.241 9.241 0 0 1-3.051 4.433c-1.432 1.191-3.3 1.905-5.603 2.14-2.273.245-5-.146-8.178-1.173-2.11-.681-3.864-1.417-5.263-2.206a31.44 31.44 0 0 1-3.926-2.736l2.37-7.337a21.281 21.281 0 0 0 3.868 3.073c1.39.82 2.695 1.427 3.918 1.822 2.17.7 3.736.869 4.698.504.992-.354 1.656-1.051 1.991-2.09.237-.734.241-1.425.011-2.073-.189-.669-.743-1.303-1.663-1.904-.89-.591-2.282-1.193-4.177-1.805l-2.017-.651 2.147-6.649 2.063.666c2.507.81 4.353 1.052 5.538.726 1.216-.316 1.987-.979 2.313-1.987.286-.887.157-1.638-.387-2.252-.534-.645-1.352-1.145-2.452-1.5a9.86 9.86 0 0 0-2.93-.492 14.982 14.982 0 0 0-2.543.192c-.74.098-1.314.2-1.719.306l-1.758-7.1c1.641-.482 3.437-.763 5.386-.843 1.98-.069 4.392.355 7.235 1.274 3.362 1.085 5.79 2.612 7.28 4.579 1.522 1.976 1.903 4.142 1.143 6.495Z"/>
        </mask>
        <g mask="url(#ad06296f-8533-4d88-b04a-8c9a25fc8560)">
            <path fill="#FF99DC" d="M54.584 29.193c-.134.415-.612.631-1.067.484-.456-.147-.717-.602-.583-1.016.134-.415.612-.631 1.067-.484.456.147.717.602.583 1.016z"/>
            <path fill="#FF99DC" d="M64.657 35.575c.815.18 1.31 1.081 1.105 2.013-.206.932-1.033 1.542-1.849 1.363-.815-.18-1.31-1.081-1.105-2.013.206-.932 1.033-1.542 1.849-1.363z"/>
            <path fill="#FF99DC" d="M59.473 53.547c-.147.456-.703.684-1.241.51-.54-.174-.857-.684-.71-1.14.148-.456.704-.684 1.242-.51.54.174.857.684.71 1.14z"/>
            <path fill="#FF99DC" d="M42.197 55.753c-.094.29-.438.438-.77.331-.33-.107-.523-.428-.43-.719.094-.29.439-.438.77-.331.331.107.524.429.43.719z"/>
            <path fill="#FF99DC" d="M52.276 56.854c-.066.207-.322.31-.57.23-.25-.08-.397-.313-.33-.52.067-.207.323-.31.571-.23.249.08.396.313.33.52z"/>
            <path fill="#FF99DC" d="M64.051 50.14c-.267.828-1.257 1.25-2.21.943-.952-.308-1.508-1.229-1.24-2.057.267-.828 1.257-1.25 2.21-.943.952.308 1.508 1.229 1.24 2.057z"/>
            <path fill="#FF99DC" d="M48.25 55.472c-.186.58-.875.876-1.538.662-.663-.214-1.048-.858-.861-1.437.187-.58.876-.876 1.539-.662.663.214 1.048.857.86 1.437z"/>
            <path fill="#FF99DC" d="M55.793 59.813c-.254.787-1.232 1.175-2.185.868-.953-.308-1.52-1.195-1.265-1.982.254-.787 1.232-1.175 2.185-.868.953.308 1.52 1.195 1.265 1.982z"/>
            <path fill="#FF99DC" d="M62.239 58.83c-.187.58-.876.876-1.539.662-.663-.214-1.048-.858-.861-1.438.187-.58.876-.876 1.539-.662.663.214 1.048.858.861 1.438z"/>
            <path fill="#FF99DC" d="M54.768 43.498c-.187.58-.876.876-1.539.662-.663-.214-1.048-.858-.861-1.438.187-.58.876-.876 1.539-.662.663.214 1.048.858.861 1.438z"/>
            <path fill="#FF99DC" d="M59.496 42.706c-.214.663-.992 1.005-1.738.764-.745-.24-1.176-.973-.962-1.636.214-.663.992-1.005 1.738-.764.745.24 1.176.973.962 1.636z"/>
            <path fill="#FF99DC" d="M67.28 32.963c-.107.331-.53.491-.944.358-.414-.134-.663-.511-.556-.842.107-.331.53-.491.944-.358.414.134.663.511.556.842z"/>
            <path fill="#FF99DC" d="M63.544 30.68c-.307.953-1.53 1.411-2.731 1.023-1.201-.388-1.925-1.474-1.617-2.427.307-.953 1.53-1.411 2.731-1.023 1.201.388 1.925 1.474 1.617 2.427z"/>
            <path fill="#E2179D" d="M66.73 38.93c1.484-2.212 1.29-8.129.682-9.554l6.492 3.219-1.656 8.599-8.165 3.452-4.007-.493c2.303-1.179 5.17-3.01 6.654-5.222Z" opacity=".4"/>
            <path fill="#E2179D" d="M57.838 57.532c6.587-2.04 6.757-7.623 6.714-10.468 1.289.31 4.093 1.418 4.999 3.377 1.132 2.45-.757 6.807-2.134 9.086-1.377 2.28-4.35 4.044-9.505 4.622-5.154.58-16.294-4.621-19.257-6.86-2.37-1.79-1.105-3.028-.176-3.422 3.35 2.524 13.04 5.62 19.359 3.665Z" opacity=".4"/>
        </g>
    </g>
</svg>
