<?xml version="1.0" encoding="UTF-8"?>
<svg data-bbox="0 0 78 78" viewBox="0 0 78 78" height="78" width="78" xmlns="http://www.w3.org/2000/svg" data-type="ugc">
    <g>
        <path fill="#E1F9EE" d="M78 39c0 21.54-17.46 39-39 39S0 60.54 0 39 17.46 0 39 0s39 17.46 39 39z"/>
        <path fill="#FFAB55" d="M9.494 26.218a1.687 1.687 0 0 1 1.12-2.106l28.503-8.714a4.78 4.78 0 0 1 5.969 3.173L54.95 50.84 26.2 58.747l-7.17-1.336-9.537-31.192Z" clip-rule="evenodd" fill-rule="evenodd"/>
        <mask height="44" width="46" y="15" x="9" maskUnits="userSpaceOnUse" style="mask-type:alpha" id="7255bfc6-18be-4f5b-a23d-f7bb56ff64f6" fill="none">
            <path fill="#FFAB55" d="M9.493 26.22a1.687 1.687 0 0 1 1.12-2.106l28.503-8.715a4.78 4.78 0 0 1 5.97 3.174L54.95 50.84 26.2 58.748l-7.17-1.336L9.493 26.22Z" clip-rule="evenodd" fill-rule="evenodd"/>
        </mask>
        <g mask="url(#7255bfc6-18be-4f5b-a23d-f7bb56ff64f6)">
            <path fill="#F39433" d="m15.608 52.1 19.401-39.365 10.685 1.968 9.7 34.445-43.442 10.684 3.656-7.732Z" clip-rule="evenodd" fill-rule="evenodd"/>
            <path fill="#E8821A" d="m45.883 11.565-6.453 1.973L51.843 54.14l6.454-1.973-12.414-40.603Z"/>
        </g>
        <path fill="#ffffff" d="M17.949 28.904 34.35 23.89a1.125 1.125 0 0 1 1.405.747l2.795 9.143a1.125 1.125 0 0 1-.747 1.404L21.4 40.199a1.125 1.125 0 0 1-1.404-.747l-2.795-9.143a1.125 1.125 0 0 1 .747-1.404Z" clip-rule="evenodd" fill-rule="evenodd"/>
        <path fill="#ffffff" d="m25.241 43.326 11.294-3.453a.985.985 0 0 1 .575 1.882l-11.293 3.453a.985.985 0 0 1-.576-1.882Z" clip-rule="evenodd" fill-rule="evenodd"/>
        <g opacity=".9">
            <path fill="#ffffff" d="m19.03 57.41 29.707-9.082c2.156-.66 4.456.612 5.137 2.84.681 2.227-.514 4.568-2.67 5.227l-29.708 9.082s.655-2.185.018-4.269c-.637-2.083-2.485-3.798-2.485-3.798Z" clip-rule="evenodd" fill-rule="evenodd" opacity=".9"/>
            <g opacity=".9">
                <path fill="#F6F7FF" d="m30.088 54.209-4.78.703-1.406 9.279L37.4 59.833l-7.31-5.624Z" clip-rule="evenodd" fill-rule="evenodd" opacity=".9"/>
                <path fill="#DDDFED" d="M28.256 60.251c2.886-.84 8.218-2.451 8.97-2.834.752-.383.005.628-1.877 1.271-1.881.643-9.348 2.712-9.348 2.712s-.63-.31 2.255-1.149Z" clip-rule="evenodd" fill-rule="evenodd" opacity=".9"/>
                <path fill="#DDDFED" d="M24.886 59.833s5.585-1.766 8.721-2.733c3.137-.967 7.776-2.7 7.776-2.7s7.4-2.508 7.592-2.133c.192.376-3.384 1.41-9.28 3.466-5.894 2.057-16.686 5.031-16.686 5.031l1.877-.931Z" clip-rule="evenodd" fill-rule="evenodd" opacity=".9"/>
            </g>
        </g>
        <path stroke-linecap="round" stroke-width="2.272" stroke="#E8821A" d="m20.105 57.081 28.632-8.753c2.156-.66 4.456.612 5.138 2.84.68 2.227-.515 4.568-2.672 5.227l-28.632 8.753" fill="none"/>
        <path fill="#13D9C7" d="M32.986 17.21a1.687 1.687 0 0 1 1.954-1.369l29.353 5.176a4.78 4.78 0 0 1 3.877 5.537l-5.86 33.23-29.205-6.007-5.783-4.446 5.664-32.121Z" clip-rule="evenodd" fill-rule="evenodd"/>
        <mask height="45" width="42" y="15" x="27" maskUnits="userSpaceOnUse" style="mask-type:alpha" id="e90ca34d-7b99-42d4-8822-97087e8ab3a4" fill="none">
            <path fill="#D91313" d="M32.83 17.349a1.687 1.687 0 0 1 1.954-1.369l29.352 5.176a4.78 4.78 0 0 1 3.877 5.538l-5.859 33.229-29.206-6.007-5.782-4.446 5.663-32.121Z" clip-rule="evenodd" fill-rule="evenodd"/>
        </mask>
        <g mask="url(#e90ca34d-7b99-42d4-8822-97087e8ab3a4)">
            <path stroke-linecap="round" stroke-width="1.136" stroke="#63E8DB" d="m27.322 49.331 5.664-32.121a1.687 1.687 0 0 1 1.954-1.369" fill="none"/>
            <path fill="#00BFAE" d="M67.139 26.236 23.837 50.699l38.1 5.483 5.202-29.946Z" clip-rule="evenodd" fill-rule="evenodd"/>
            <path fill="#0FC2B1" d="m72.062 20.674-6.646-1.172-7.372 41.813 6.645 1.172 7.373-41.813Z"/>
        </g>
        <path fill="#ffffff" d="m39.91 23.284 16.89 2.979c.612.108 1.021.691.913 1.303l-1.123 6.369a1.125 1.125 0 0 1-1.303.912l-16.891-2.978a1.125 1.125 0 0 1-.913-1.303l1.123-6.37a1.125 1.125 0 0 1 1.303-.912Z" clip-rule="evenodd" fill-rule="evenodd"/>
        <path fill="#ffffff" d="m37.183 37.936 17.168 3.027a.985.985 0 0 1-.341 1.939l-17.17-3.028a.985.985 0 0 1 .342-1.938Z" clip-rule="evenodd" fill-rule="evenodd"/>
        <path fill="#ffffff" d="m39.366 41.747 11.63 2.051a.985.985 0 0 1-.342 1.938l-11.63-2.05a.985.985 0 0 1 .342-1.939Z" clip-rule="evenodd" fill-rule="evenodd"/>
        <path fill="#ffffff" d="m27.322 49.331 30.593 5.395c2.22.391 3.693 2.568 3.288 4.862-.404 2.294-2.532 3.837-4.753 3.445l-30.593-5.394s1.576-1.65 1.954-3.796c.379-2.146-.489-4.512-.489-4.512Z" clip-rule="evenodd" fill-rule="evenodd"/>
        <path fill="#F6F7FF" d="m59.753 55.474-20.45 4.363 18.979 3.374 2.53-1.828-1.059-5.909Z" clip-rule="evenodd" fill-rule="evenodd"/>
        <path fill="#DDDFED" d="M30.164 52.526s11.387 1.265 14.34 1.687c2.952.422 3.233 1.125 3.233 1.125l-17.573-2.812Z" clip-rule="evenodd" fill-rule="evenodd"/>
        <path fill="#DDDFED" d="M31.148 55.057s5.905 1.546 9.138 2.109c3.234.562 8.155 1.124 8.155 1.124s7.732 1.125 7.732 1.547c0 .421-3.655-.281-9.841-1.125S29.18 55.619 29.18 55.619l1.968-.562Z" clip-rule="evenodd" fill-rule="evenodd"/>
        <path fill="#DDDFED" d="M41.833 55.62c2.952.561 8.435 1.546 9.279 1.546.843 0-.282.562-2.25.28-1.968-.28-9.56-1.827-9.56-1.827s-.422-.562 2.53 0Z" clip-rule="evenodd" fill-rule="evenodd"/>
        <path fill="#DDDFED" d="m53.923 59.415-1.687 2.25-.562-2.39 2.25.14Z" clip-rule="evenodd" fill-rule="evenodd"/>
        <path stroke-linecap="round" stroke-width="2.272" stroke="#0FC2B1" d="m28.43 49.527 29.485 5.199c2.22.391 3.693 2.568 3.288 4.862-.404 2.294-2.532 3.837-4.753 3.445l-29.485-5.2" fill="none"/>
        <path fill="#E53B54" d="m46.107 58.201-.684 5.916a.281.281 0 0 0 .36.302l3.088-.923 2.579 1.414a.281.281 0 0 0 .416-.238l.162-5.59-5.92-.881Z" clip-rule="evenodd" fill-rule="evenodd"/>
        <mask height="7" width="8" y="58" x="45" maskUnits="userSpaceOnUse" style="mask-type:alpha" id="ceb8754e-e134-44fe-a0b2-c215ffc198f2" fill="none">
            <path fill="#E53B54" d="m46.107 58.201-.684 5.916a.281.281 0 0 0 .36.302l3.088-.923 2.579 1.414a.281.281 0 0 0 .416-.238l.162-5.59-5.92-.881Z" clip-rule="evenodd" fill-rule="evenodd"/>
        </mask>
        <g mask="url(#ceb8754e-e134-44fe-a0b2-c215ffc198f2)">
            <path fill="#C7233B" d="m49.209 58.286-.422 5.483 3.84 3.281 1.59-6.438.307-1.945-5.315-.38Z" clip-rule="evenodd" fill-rule="evenodd"/>
        </g>
    </g>
</svg>
